<mxfile host="app.diagrams.net" modified="2024-01-22T18:47:47.334Z" agent="Mozilla/5.0 (Windows NT 10.0; Win64; x64) AppleWebKit/537.36 (KHTML, like Gecko) Chrome/120.0.0.0 Safari/537.36" etag="vDWi44ucygXEwESSJBLp" version="22.1.21" type="github">
  <diagram name="Page-1" id="ngzMAr4GjHRXU61JJ0NY">
    <mxGraphModel dx="2074" dy="1144" grid="1" gridSize="10" guides="1" tooltips="1" connect="1" arrows="1" fold="1" page="1" pageScale="1" pageWidth="850" pageHeight="1100" background="#ffffff" math="0" shadow="0">
      <root>
        <mxCell id="0" />
        <mxCell id="1" parent="0" />
        <mxCell id="kVj-EiCJ6cz-r8lEmF65-19" style="edgeStyle=orthogonalEdgeStyle;rounded=0;orthogonalLoop=1;jettySize=auto;html=1;exitX=0.5;exitY=1;exitDx=0;exitDy=0;entryX=0.5;entryY=0;entryDx=0;entryDy=0;" edge="1" parent="1" source="kVj-EiCJ6cz-r8lEmF65-17" target="kVj-EiCJ6cz-r8lEmF65-18">
          <mxGeometry relative="1" as="geometry" />
        </mxCell>
        <mxCell id="kVj-EiCJ6cz-r8lEmF65-17" value="" style="ellipse;fillColor=strokeColor;html=1;" vertex="1" parent="1">
          <mxGeometry x="320" y="42" width="30" height="30" as="geometry" />
        </mxCell>
        <mxCell id="kVj-EiCJ6cz-r8lEmF65-21" style="edgeStyle=orthogonalEdgeStyle;rounded=0;orthogonalLoop=1;jettySize=auto;html=1;exitX=0.5;exitY=1;exitDx=0;exitDy=0;" edge="1" parent="1" source="kVj-EiCJ6cz-r8lEmF65-18" target="kVj-EiCJ6cz-r8lEmF65-20">
          <mxGeometry relative="1" as="geometry" />
        </mxCell>
        <mxCell id="kVj-EiCJ6cz-r8lEmF65-18" value="Performance Managment Initiated" style="rounded=1;whiteSpace=wrap;html=1;" vertex="1" parent="1">
          <mxGeometry x="275" y="120" width="120" height="60" as="geometry" />
        </mxCell>
        <mxCell id="kVj-EiCJ6cz-r8lEmF65-23" value="" style="edgeStyle=orthogonalEdgeStyle;rounded=0;orthogonalLoop=1;jettySize=auto;html=1;" edge="1" parent="1" source="kVj-EiCJ6cz-r8lEmF65-20" target="kVj-EiCJ6cz-r8lEmF65-22">
          <mxGeometry relative="1" as="geometry" />
        </mxCell>
        <mxCell id="kVj-EiCJ6cz-r8lEmF65-20" value="Gather Employee Performance Data" style="rounded=1;whiteSpace=wrap;html=1;" vertex="1" parent="1">
          <mxGeometry x="275" y="230" width="120" height="60" as="geometry" />
        </mxCell>
        <mxCell id="kVj-EiCJ6cz-r8lEmF65-25" value="" style="edgeStyle=orthogonalEdgeStyle;rounded=0;orthogonalLoop=1;jettySize=auto;html=1;" edge="1" parent="1" source="kVj-EiCJ6cz-r8lEmF65-22" target="kVj-EiCJ6cz-r8lEmF65-24">
          <mxGeometry relative="1" as="geometry" />
        </mxCell>
        <mxCell id="kVj-EiCJ6cz-r8lEmF65-22" value="Update Performance Records" style="whiteSpace=wrap;html=1;rounded=1;" vertex="1" parent="1">
          <mxGeometry x="275" y="340" width="120" height="60" as="geometry" />
        </mxCell>
        <mxCell id="kVj-EiCJ6cz-r8lEmF65-27" value="" style="edgeStyle=orthogonalEdgeStyle;rounded=0;orthogonalLoop=1;jettySize=auto;html=1;" edge="1" parent="1" source="kVj-EiCJ6cz-r8lEmF65-24" target="kVj-EiCJ6cz-r8lEmF65-26">
          <mxGeometry relative="1" as="geometry" />
        </mxCell>
        <mxCell id="kVj-EiCJ6cz-r8lEmF65-24" value="Performance Records Updated" style="whiteSpace=wrap;html=1;rounded=1;" vertex="1" parent="1">
          <mxGeometry x="275" y="450" width="120" height="60" as="geometry" />
        </mxCell>
        <mxCell id="kVj-EiCJ6cz-r8lEmF65-29" value="" style="edgeStyle=orthogonalEdgeStyle;rounded=0;orthogonalLoop=1;jettySize=auto;html=1;" edge="1" parent="1" source="kVj-EiCJ6cz-r8lEmF65-26" target="kVj-EiCJ6cz-r8lEmF65-28">
          <mxGeometry relative="1" as="geometry" />
        </mxCell>
        <mxCell id="kVj-EiCJ6cz-r8lEmF65-26" value="Conduct Performance Review Meetings" style="whiteSpace=wrap;html=1;rounded=1;" vertex="1" parent="1">
          <mxGeometry x="275" y="560" width="120" height="60" as="geometry" />
        </mxCell>
        <mxCell id="kVj-EiCJ6cz-r8lEmF65-31" value="" style="edgeStyle=orthogonalEdgeStyle;rounded=0;orthogonalLoop=1;jettySize=auto;html=1;" edge="1" parent="1" source="kVj-EiCJ6cz-r8lEmF65-28" target="kVj-EiCJ6cz-r8lEmF65-30">
          <mxGeometry relative="1" as="geometry" />
        </mxCell>
        <mxCell id="kVj-EiCJ6cz-r8lEmF65-28" value="Provide Feedback" style="whiteSpace=wrap;html=1;rounded=1;" vertex="1" parent="1">
          <mxGeometry x="275" y="670" width="120" height="60" as="geometry" />
        </mxCell>
        <mxCell id="kVj-EiCJ6cz-r8lEmF65-33" value="" style="edgeStyle=orthogonalEdgeStyle;rounded=0;orthogonalLoop=1;jettySize=auto;html=1;" edge="1" parent="1" source="kVj-EiCJ6cz-r8lEmF65-30" target="kVj-EiCJ6cz-r8lEmF65-32">
          <mxGeometry relative="1" as="geometry" />
        </mxCell>
        <mxCell id="kVj-EiCJ6cz-r8lEmF65-30" value="Set Performance Goals for Next Month" style="whiteSpace=wrap;html=1;rounded=1;" vertex="1" parent="1">
          <mxGeometry x="275" y="780" width="120" height="60" as="geometry" />
        </mxCell>
        <mxCell id="kVj-EiCJ6cz-r8lEmF65-35" style="edgeStyle=orthogonalEdgeStyle;rounded=0;orthogonalLoop=1;jettySize=auto;html=1;exitX=0.5;exitY=1;exitDx=0;exitDy=0;entryX=0.5;entryY=0;entryDx=0;entryDy=0;" edge="1" parent="1" source="kVj-EiCJ6cz-r8lEmF65-32" target="kVj-EiCJ6cz-r8lEmF65-34">
          <mxGeometry relative="1" as="geometry" />
        </mxCell>
        <mxCell id="kVj-EiCJ6cz-r8lEmF65-32" value="Performance Management Completed" style="whiteSpace=wrap;html=1;rounded=1;" vertex="1" parent="1">
          <mxGeometry x="275" y="890" width="120" height="60" as="geometry" />
        </mxCell>
        <mxCell id="kVj-EiCJ6cz-r8lEmF65-34" value="" style="ellipse;html=1;shape=endState;fillColor=strokeColor;" vertex="1" parent="1">
          <mxGeometry x="320" y="1000" width="30" height="30" as="geometry" />
        </mxCell>
      </root>
    </mxGraphModel>
  </diagram>
</mxfile>
